<svg width="24" height="24" viewBox="0 0 24 24" fill="none" xmlns="http://www.w3.org/2000/svg">
<path fill-rule="evenodd" clip-rule="evenodd" d="M20.3991 9.14587L21.1193 9.86587C21.6895 10.4259 21.9996 11.1859 21.9996 11.9859C22.0096 12.7859 21.6995 13.5469 21.1393 14.1159C21.1327 14.1232 21.126 14.1296 21.1193 14.1361C21.116 14.1393 21.1127 14.1425 21.1093 14.1459L20.3991 14.8559C20.119 15.1359 19.9589 15.5159 19.9589 15.9169V16.9459C19.9589 18.6059 18.6084 19.9569 16.9478 19.9569H15.9174C15.5173 19.9569 15.1372 20.1159 14.8571 20.3959L14.1368 21.1159C13.5466 21.7069 12.7763 21.9959 12.006 21.9959C11.2357 21.9959 10.4655 21.7069 9.87525 21.1269L9.14498 20.3959C8.86488 20.1159 8.48474 19.9569 8.0846 19.9569H7.05423C5.39362 19.9569 4.04313 18.6059 4.04313 16.9459V15.9169C4.04313 15.5159 3.88308 15.1359 3.60298 14.8459L2.88271 14.1359C1.71229 12.9669 1.70229 11.0559 2.87271 9.87687L3.60298 9.14587C3.88308 8.86587 4.04313 8.48587 4.04313 8.07587V7.05587C4.04313 5.39587 5.39362 4.04687 7.05423 4.04687H8.0846C8.48474 4.04687 8.86488 3.88587 9.14498 3.60587L9.86524 2.88587C11.0357 1.70687 12.9464 1.70687 14.1268 2.87687L14.8571 3.60587C15.1372 3.88587 15.5173 4.04687 15.9174 4.04687H16.9478C18.6084 4.04687 19.9589 5.39587 19.9589 7.05587V8.08687C19.9589 8.48587 20.119 8.86587 20.3991 9.14587ZM9.42509 15.4459C9.66517 15.4459 9.88525 15.3559 10.0453 15.1859L15.1872 10.0469C15.5273 9.70687 15.5273 9.14587 15.1872 8.80587C14.8471 8.46687 14.2969 8.46687 13.9567 8.80587L8.81486 13.9459C8.47474 14.2859 8.47474 14.8459 8.81486 15.1859C8.97492 15.3559 9.195 15.4459 9.42509 15.4459ZM13.6966 14.5659C13.6966 15.0559 14.0868 15.4459 14.577 15.4459C15.0571 15.4459 15.4473 15.0559 15.4473 14.5659C15.4473 14.0869 15.0571 13.6959 14.577 13.6959C14.0868 13.6959 13.6966 14.0869 13.6966 14.5659ZM9.43509 8.55587C9.91526 8.55587 10.3054 8.94587 10.3054 9.42587C10.3054 9.91687 9.91526 10.3059 9.43509 10.3059C8.95492 10.3059 8.55477 9.91687 8.55477 9.42587C8.55477 8.94587 8.95492 8.55587 9.43509 8.55587Z" fill="#FF8A00"/>
</svg>
