<svg width="26" height="25" viewBox="0 0 26 25" fill="none" xmlns="http://www.w3.org/2000/svg">
<path fill-rule="evenodd" clip-rule="evenodd" d="M17.8598 2.09426C19.3583 2.00061 20.836 2.5209 21.9494 3.54068C22.9692 4.65411 23.4895 6.13175 23.4062 7.64061V17.3597C23.4999 18.8686 22.9692 20.3462 21.9598 21.4596C20.8464 22.4794 19.3583 22.9997 17.8598 22.9061H8.14065C6.63178 22.9997 5.15413 22.4794 4.04069 21.4596C3.02091 20.3462 2.50061 18.8686 2.59426 17.3597V7.64061C2.50061 6.13175 3.02091 4.65411 4.04069 3.54068C5.15413 2.5209 6.63178 2.00061 8.14065 2.09426H17.8598ZM11.9388 17.547L18.9421 10.523C19.5768 9.87788 19.5768 8.83729 18.9421 8.20253L17.5893 6.84976C16.9441 6.20459 15.9035 6.20459 15.2583 6.84976L14.5611 7.55736C14.4571 7.66142 14.4571 7.83832 14.5611 7.94238C14.5611 7.94238 16.2157 9.58651 16.2469 9.62813C16.3614 9.75301 16.4342 9.9195 16.4342 10.1068C16.4342 10.4814 16.1324 10.7936 15.7474 10.7936C15.5705 10.7936 15.404 10.7208 15.2896 10.6063L13.5518 8.87891C13.4685 8.79566 13.3228 8.79566 13.2396 8.87891L8.27593 13.8425C7.93253 14.1859 7.73482 14.6438 7.72441 15.1329L7.66198 17.5991C7.66198 17.7343 7.7036 17.8592 7.79725 17.9529C7.89091 18.0465 8.01578 18.0985 8.15106 18.0985H10.5965C11.096 18.0985 11.5746 17.9008 11.9388 17.547Z" fill="#1BAC4B"/>
</svg>
