<svg width="21" height="22" viewBox="0 0 21 22" fill="none" xmlns="http://www.w3.org/2000/svg">
<path d="M10.5 12C11.0523 12 11.5 11.5523 11.5 11C11.5 10.4477 11.0523 10 10.5 10C9.94772 10 9.5 10.4477 9.5 11C9.5 11.5523 9.94772 12 10.5 12Z" fill="#393939"/>
<path d="M10.5 7C11.0523 7 11.5 6.55228 11.5 6C11.5 5.44772 11.0523 5 10.5 5C9.94772 5 9.5 5.44772 9.5 6C9.5 6.55228 9.94772 7 10.5 7Z" fill="#393939"/>
<path d="M10.5 17C11.0523 17 11.5 16.5523 11.5 16C11.5 15.4477 11.0523 15 10.5 15C9.94772 15 9.5 15.4477 9.5 16C9.5 16.5523 9.94772 17 10.5 17Z" fill="#393939"/>
</svg>
