<svg width="24" height="24" viewBox="0 0 14 14" fill="none" xmlns="http://www.w3.org/2000/svg">
<path fill-rule="evenodd" clip-rule="evenodd" d="M6.8542 2.625C6.80112 2.625 6.67045 2.63958 6.60103 2.77842L5.53587 4.90817C5.36728 5.24475 5.04237 5.47867 4.6667 5.53233L2.28203 5.87592C2.12453 5.89867 2.07087 6.01533 2.05453 6.06433C2.03995 6.11158 2.01662 6.23175 2.12512 6.33558L3.84945 7.99225C4.1242 8.2565 4.24903 8.63742 4.1837 9.01017L3.7777 11.3493C3.75262 11.4957 3.8442 11.5809 3.88503 11.6101C3.9282 11.6427 4.0437 11.7075 4.18662 11.6328L6.3187 10.5274C6.6547 10.3542 7.05487 10.3542 7.3897 10.5274L9.5212 11.6322C9.6647 11.7063 9.7802 11.6416 9.82395 11.6101C9.86478 11.5809 9.95637 11.4957 9.93128 11.3493L9.52412 9.01017C9.45878 8.63742 9.58362 8.2565 9.85837 7.99225L11.5827 6.33558C11.6918 6.23175 11.6684 6.111 11.6533 6.06433C11.6375 6.01533 11.5839 5.89867 11.4264 5.87592L9.0417 5.53233C8.66662 5.47867 8.3417 5.24475 8.17312 4.90758L7.10678 2.77842C7.03795 2.63958 6.90728 2.625 6.8542 2.625ZM4.05245 12.5417C3.81153 12.5417 3.57237 12.4658 3.36762 12.3165C3.01412 12.0575 2.84087 11.6299 2.91612 11.1994L3.32212 8.86025C3.33728 8.77333 3.30753 8.68525 3.24337 8.62342L1.51903 6.96675C1.2017 6.66283 1.08795 6.21367 1.22212 5.79658C1.35745 5.37483 1.71562 5.07325 2.1572 5.01025L4.54187 4.66667C4.63403 4.65383 4.71337 4.59725 4.75303 4.51675L5.81878 2.38642C6.01537 1.99383 6.41203 1.75 6.8542 1.75C7.29637 1.75 7.69303 1.99383 7.88962 2.38642L8.95595 4.51617C8.9962 4.59725 9.07495 4.65383 9.16653 4.66667L11.5512 5.01025C11.9928 5.07325 12.3509 5.37483 12.4863 5.79658C12.6204 6.21367 12.5061 6.66283 12.1888 6.96675L10.4644 8.62342C10.4003 8.68525 10.3711 8.77333 10.3863 8.85967L10.7929 11.1994C10.8675 11.6305 10.6943 12.0581 10.3402 12.3165C9.98145 12.5796 9.5142 12.6152 9.11812 12.4087L6.9872 11.3044C6.90378 11.2612 6.80403 11.2612 6.72062 11.3044L4.5897 12.4093C4.41937 12.4979 4.23562 12.5417 4.05245 12.5417Z" fill="url(#paint0_linear_753_1884)"/>
<defs>
<linearGradient id="paint0_linear_753_1884" x1="12.5415" y1="12.5419" x2="-0.877998" y2="8.44092" gradientUnits="userSpaceOnUse">
<stop stop-color="#FB9400"/>
<stop offset="1" stop-color="#FFAB38"/>
</linearGradient>
</defs>
</svg>
