<svg width="40" height="40" viewBox="0 0 40 40" fill="none" xmlns="http://www.w3.org/2000/svg">
<circle cx="20.482" cy="20.2408" r="15.1807" fill="#1BAC4B"/>
<ellipse cx="38.3132" cy="6.74681" rx="1.68675" ry="1.68675" fill="url(#paint0_linear_71_3468)"/>
<circle cx="4.09641" cy="2.89133" r="2.16867" fill="url(#paint1_linear_71_3468)"/>
<circle cx="1.92772" cy="29.1562" r="0.963855" fill="url(#paint2_linear_71_3468)"/>
<circle cx="35.1807" cy="34.9394" r="0.481928" fill="url(#paint3_linear_71_3468)"/>
<path fill-rule="evenodd" clip-rule="evenodd" d="M24.6265 18.5098L25.0025 18.8857C25.3002 19.1781 25.4622 19.5749 25.4622 19.9925C25.4674 20.4102 25.3055 20.8075 25.013 21.1046C25.0095 21.1084 25.006 21.1118 25.0026 21.1151C25.0008 21.1168 24.9991 21.1185 24.9973 21.1203L24.6265 21.4909C24.4803 21.6371 24.3967 21.8355 24.3967 22.0449V22.5821C24.3967 23.4488 23.6916 24.1541 22.8247 24.1541H22.2867C22.0778 24.1541 21.8793 24.2371 21.7331 24.3833L21.3571 24.7592C21.0489 25.0678 20.6468 25.2187 20.2446 25.2187C19.8424 25.2187 19.4403 25.0678 19.1321 24.765L18.7509 24.3833C18.6046 24.2371 18.4062 24.1541 18.1973 24.1541H17.6593C16.7923 24.1541 16.0873 23.4488 16.0873 22.5821V22.0449C16.0873 21.8355 16.0037 21.6371 15.8575 21.4857L15.4814 21.115C14.8704 20.5047 14.8651 19.507 15.4762 18.8915L15.8575 18.5098C16.0037 18.3636 16.0873 18.1652 16.0873 17.9512V17.4187C16.0873 16.552 16.7923 15.8477 17.6593 15.8477H18.1973C18.4062 15.8477 18.6046 15.7636 18.7509 15.6174L19.1269 15.2415C19.738 14.626 20.7355 14.626 21.3518 15.2368L21.7331 15.6174C21.8793 15.7636 22.0778 15.8477 22.2867 15.8477H22.8247C23.6916 15.8477 24.3967 16.552 24.3967 17.4187V17.9569C24.3967 18.1652 24.4803 18.3636 24.6265 18.5098ZM18.8979 21.7999C19.0232 21.7999 19.1381 21.753 19.2217 21.6642L21.9062 18.9812C22.0838 18.8037 22.0838 18.5108 21.9062 18.3333C21.7286 18.1563 21.4414 18.1563 21.2638 18.3333L18.5793 21.0168C18.4017 21.1943 18.4017 21.4867 18.5793 21.6642C18.6628 21.753 18.7777 21.7999 18.8979 21.7999ZM21.1278 21.3395C21.1278 21.5953 21.3315 21.7989 21.5874 21.7989C21.8381 21.7989 22.0418 21.5953 22.0418 21.3395C22.0418 21.0894 21.8381 20.8852 21.5874 20.8852C21.3315 20.8852 21.1278 21.0894 21.1278 21.3395ZM18.9026 18.2018C19.1533 18.2018 19.357 18.4054 19.357 18.6561C19.357 18.9124 19.1533 19.1155 18.9026 19.1155C18.652 19.1155 18.443 18.9124 18.443 18.6561C18.443 18.4054 18.652 18.2018 18.9026 18.2018Z" fill="white"/>
<circle cx="22.6504" cy="1.68652" r="0.481928" fill="url(#paint4_linear_71_3468)"/>
<circle cx="13.2532" cy="38.5539" r="0.722892" fill="url(#paint5_linear_71_3468)"/>
<circle cx="26.2649" cy="37.5901" r="0.240964" fill="url(#paint6_linear_71_3468)"/>
<circle cx="36.6265" cy="24.3369" r="0.481928" fill="url(#paint7_linear_71_3468)"/>
<circle cx="0.240964" cy="16.8674" r="0.240964" fill="url(#paint8_linear_71_3468)"/>
<defs>
<linearGradient id="paint0_linear_71_3468" x1="40" y1="8.43355" x2="35.9858" y2="7.26969" gradientUnits="userSpaceOnUse">
<stop stop-color="#1BAC4B"/>
<stop offset="1" stop-color="#46D375"/>
</linearGradient>
<linearGradient id="paint1_linear_71_3468" x1="6.26508" y1="5.06001" x2="1.10403" y2="3.5636" gradientUnits="userSpaceOnUse">
<stop stop-color="#1BAC4B"/>
<stop offset="1" stop-color="#46D375"/>
</linearGradient>
<linearGradient id="paint2_linear_71_3468" x1="2.89158" y1="30.1201" x2="0.597775" y2="29.455" gradientUnits="userSpaceOnUse">
<stop stop-color="#1BAC4B"/>
<stop offset="1" stop-color="#46D375"/>
</linearGradient>
<linearGradient id="paint3_linear_71_3468" x1="35.6626" y1="35.4214" x2="34.5157" y2="35.0888" gradientUnits="userSpaceOnUse">
<stop stop-color="#1BAC4B"/>
<stop offset="1" stop-color="#46D375"/>
</linearGradient>
<linearGradient id="paint4_linear_71_3468" x1="23.1323" y1="2.16845" x2="21.9854" y2="1.83591" gradientUnits="userSpaceOnUse">
<stop stop-color="#1BAC4B"/>
<stop offset="1" stop-color="#46D375"/>
</linearGradient>
<linearGradient id="paint5_linear_71_3468" x1="13.9761" y1="39.2768" x2="12.2557" y2="38.778" gradientUnits="userSpaceOnUse">
<stop stop-color="#1BAC4B"/>
<stop offset="1" stop-color="#46D375"/>
</linearGradient>
<linearGradient id="paint6_linear_71_3468" x1="26.5059" y1="37.831" x2="25.9324" y2="37.6648" gradientUnits="userSpaceOnUse">
<stop stop-color="#1BAC4B"/>
<stop offset="1" stop-color="#46D375"/>
</linearGradient>
<linearGradient id="paint7_linear_71_3468" x1="37.1084" y1="24.8188" x2="35.9615" y2="24.4863" gradientUnits="userSpaceOnUse">
<stop stop-color="#1BAC4B"/>
<stop offset="1" stop-color="#46D375"/>
</linearGradient>
<linearGradient id="paint8_linear_71_3468" x1="0.481928" y1="17.1084" x2="-0.091523" y2="16.9421" gradientUnits="userSpaceOnUse">
<stop stop-color="#1BAC4B"/>
<stop offset="1" stop-color="#46D375"/>
</linearGradient>
</defs>
</svg>
