<svg width="28" height="28" viewBox="0 0 28 28" fill="none" xmlns="http://www.w3.org/2000/svg">
<path fill-rule="evenodd" clip-rule="evenodd" d="M13.9679 23.7629C10.1891 23.7629 6.96094 23.1913 6.96094 20.9023C6.96094 18.6133 10.1681 16.6206 13.9679 16.6206C17.7468 16.6206 20.9749 18.5946 20.9749 20.8824C20.9749 23.1703 17.7678 23.7629 13.9679 23.7629Z" stroke="#212121" stroke-width="1.5" stroke-linecap="round" stroke-linejoin="round"/>
<path fill-rule="evenodd" clip-rule="evenodd" d="M13.9678 13.3567C16.4481 13.3567 18.4594 11.3465 18.4594 8.86618C18.4594 6.38584 16.4481 4.37451 13.9678 4.37451C11.4874 4.37451 9.47609 6.38584 9.47609 8.86618C9.46909 11.3372 11.4641 13.3485 13.9363 13.3567H13.9678Z" stroke="#212121" stroke-width="1.5" stroke-linecap="round" stroke-linejoin="round"/>
<path d="M21.4227 12.1235C22.8658 11.7374 23.9298 10.4214 23.9298 8.85454C23.9298 7.22004 22.7713 5.85504 21.229 5.54004" stroke="#212121" stroke-width="1.5" stroke-linecap="round" stroke-linejoin="round"/>
<path d="M22.1006 15.8018C24.1469 15.8018 25.8946 17.1889 25.8946 18.4279C25.8946 19.1571 25.2914 19.9516 24.3768 20.1663" stroke="#212121" stroke-width="1.5" stroke-linecap="round" stroke-linejoin="round"/>
<path d="M6.51468 12.1235C5.07035 11.7374 4.00635 10.4214 4.00635 8.85454C4.00635 7.22004 5.16601 5.85504 6.70718 5.54004" stroke="#212121" stroke-width="1.5" stroke-linecap="round" stroke-linejoin="round"/>
<path d="M5.8355 15.8018C3.78917 15.8018 2.0415 17.1889 2.0415 18.4279C2.0415 19.1571 2.64467 19.9516 3.5605 20.1663" stroke="#212121" stroke-width="1.5" stroke-linecap="round" stroke-linejoin="round"/>
</svg>
