<svg width="24" height="25" viewBox="0 0 24 25" fill="none" xmlns="http://www.w3.org/2000/svg">
<path opacity="0.4" d="M12.9763 3.61361L15.2028 8.08789C15.3668 8.41205 15.6799 8.63717 16.041 8.68719L21.042 9.41556C21.3341 9.45658 21.5992 9.61066 21.7782 9.84578C21.9552 10.0779 22.0312 10.3721 21.9882 10.6612C21.9532 10.9013 21.8402 11.1234 21.6672 11.2935L18.0434 14.8063C17.7783 15.0514 17.6583 15.4146 17.7223 15.7698L18.6145 20.7083C18.7095 21.3046 18.3144 21.8669 17.7223 21.98C17.4783 22.019 17.2282 21.978 17.0082 21.8659L12.5472 19.5417C12.2161 19.3746 11.8251 19.3746 11.494 19.5417L7.03303 21.8659C6.48491 22.157 5.80576 21.9589 5.5007 21.4187C5.38767 21.2036 5.34766 20.9584 5.38467 20.7193L6.27686 15.7798C6.34088 15.4256 6.21985 15.0604 5.95579 14.8153L2.33202 11.3045C1.90092 10.8883 1.88792 10.203 2.30301 9.77175C2.31201 9.76274 2.32201 9.75274 2.33202 9.74273C2.50405 9.56764 2.7301 9.45658 2.97415 9.42757L7.97523 8.6982C8.33531 8.64717 8.64837 8.42406 8.81341 8.09789L10.9599 3.61361C11.1509 3.22942 11.547 2.9903 11.9771 3.0003H12.1111C12.4842 3.04533 12.8093 3.27644 12.9763 3.61361Z" fill="url(#paint0_linear_74_8718)"/>
<path d="M11.992 19.4171C11.7983 19.4231 11.6096 19.4752 11.4399 19.5682L7.00072 21.8871C6.45756 22.1464 5.80756 21.9452 5.50303 21.4258C5.39021 21.2136 5.34927 20.9704 5.38721 20.7322L6.27384 15.8032C6.33375 15.4449 6.21394 15.0806 5.95334 14.8284L2.32794 11.3185C1.8976 10.8971 1.88961 10.2056 2.31096 9.77421C2.31695 9.76821 2.32195 9.7632 2.32794 9.7582C2.49967 9.58806 2.72133 9.47597 2.95996 9.44094L7.96523 8.70433C8.32767 8.6583 8.64219 8.43211 8.80194 8.10384L10.9776 3.56312C11.1843 3.19682 11.5806 2.97864 12 3.00166C11.992 3.2989 11.992 19.215 11.992 19.4171Z" fill="url(#paint1_linear_74_8718)"/>
<defs>
<linearGradient id="paint0_linear_74_8718" x1="22" y1="22" x2="-1.60049" y2="14.7971" gradientUnits="userSpaceOnUse">
<stop stop-color="#FB9400"/>
<stop offset="1" stop-color="#FFAB38"/>
</linearGradient>
<linearGradient id="paint1_linear_74_8718" x1="12" y1="22" x2="-0.605857" y2="20.0763" gradientUnits="userSpaceOnUse">
<stop stop-color="#FB9400"/>
<stop offset="1" stop-color="#FFAB38"/>
</linearGradient>
</defs>
</svg>
