<svg width="48" height="48" viewBox="0 0 52 52" fill="none" xmlns="http://www.w3.org/2000/svg">
<path d="M26 1.625C20.8301 1.63091 15.8736 3.68727 12.2179 7.34295C8.56227 10.9986 6.50591 15.9551 6.5 21.125C6.5 35.9889 24.7404 49.6418 25.5172 50.2159C25.657 50.3192 25.8262 50.375 26 50.375C26.1738 50.375 26.343 50.3192 26.4828 50.2159C27.2596 49.6418 45.5 35.9889 45.5 21.125C45.4941 15.9551 43.4377 10.9986 39.7821 7.34295C36.1264 3.68727 31.1699 1.63091 26 1.625ZM26 35.75C23.1074 35.75 20.2799 34.8923 17.8748 33.2852C15.4697 31.6782 13.5952 29.3941 12.4883 26.7217C11.3813 24.0494 11.0917 21.1088 11.656 18.2718C12.2203 15.4348 13.6132 12.8289 15.6586 10.7836C17.7039 8.73822 20.3098 7.34532 23.1468 6.78102C25.9838 6.21671 28.9244 6.50633 31.5967 7.61326C34.2691 8.72019 36.5532 10.5947 38.1602 12.9998C39.7673 15.4049 40.625 18.2324 40.625 21.125C40.6206 25.0024 39.0783 28.7198 36.3366 31.4616C33.5948 34.2033 29.8774 35.7456 26 35.75ZM34.9375 17.0625C34.969 17.9569 34.7593 18.8434 34.3304 19.629C33.9016 20.4145 33.2694 21.0703 32.5 21.5276V28.4375C32.5 28.8685 32.3288 29.2818 32.024 29.5865C31.7193 29.8913 31.306 30.0625 30.875 30.0625C30.444 30.0625 30.0307 29.8913 29.726 29.5865C29.4212 29.2818 29.25 28.8685 29.25 28.4375V21.5276C28.4806 21.0703 27.8484 20.4145 27.4196 19.629C26.9907 18.8434 26.781 17.9569 26.8125 17.0625C26.8125 14.3743 28.6351 12.1875 30.875 12.1875C33.1149 12.1875 34.9375 14.3743 34.9375 17.0625ZM25.1875 13V19.5C25.1868 20.1462 24.9298 20.7658 24.4728 21.2228C24.0158 21.6798 23.3962 21.9368 22.75 21.9375V28.4375C22.75 28.8685 22.5788 29.2818 22.274 29.5865C21.9693 29.8913 21.556 30.0625 21.125 30.0625C20.694 30.0625 20.2807 29.8913 19.976 29.5865C19.6712 29.2818 19.5 28.8685 19.5 28.4375V21.9375C18.8538 21.9368 18.2342 21.6798 17.7772 21.2228C17.3202 20.7658 17.0632 20.1462 17.0625 19.5V13C17.0625 12.7845 17.1481 12.5778 17.3005 12.4255C17.4528 12.2731 17.6595 12.1875 17.875 12.1875C18.0905 12.1875 18.2972 12.2731 18.4495 12.4255C18.6019 12.5778 18.6875 12.7845 18.6875 13V17.0625H20.3125V13C20.3125 12.7845 20.3981 12.5778 20.5505 12.4255C20.7028 12.2731 20.9095 12.1875 21.125 12.1875C21.3405 12.1875 21.5472 12.2731 21.6995 12.4255C21.8519 12.5778 21.9375 12.7845 21.9375 13V17.0625H23.5625V13C23.5625 12.7845 23.6481 12.5778 23.8005 12.4255C23.9528 12.2731 24.1595 12.1875 24.375 12.1875C24.5905 12.1875 24.7972 12.2731 24.9495 12.4255C25.1019 12.5778 25.1875 12.7845 25.1875 13Z" fill="#1BAC4B"/>
</svg>
