<svg width="150" height="30" viewBox="0 0 205 46" fill="none" xmlns="http://www.w3.org/2000/svg">

<path d="M40.1687 34H35.325V15.1875H29.1219V11.1562H46.3719V15.1875H40.1687V34ZM54.4287 16.1719C56.7725 16.1719 58.5694 16.6823 59.8194 17.7031C61.0694 18.724 61.6944 20.276 61.6944 22.3594V34H58.3662L57.4444 31.625H57.3194C56.8194 32.25 56.309 32.7604 55.7881 33.1562C55.2673 33.5521 54.6683 33.8438 53.9912 34.0312C53.3142 34.2188 52.4912 34.3125 51.5225 34.3125C50.4912 34.3125 49.5642 34.1146 48.7412 33.7188C47.9287 33.3229 47.2881 32.7188 46.8194 31.9062C46.3506 31.0833 46.1162 30.0417 46.1162 28.7812C46.1162 26.9271 46.7673 25.5625 48.0694 24.6875C49.3715 23.8021 51.3246 23.3125 53.9287 23.2188L56.96 23.125V22.3594C56.96 21.4427 56.7204 20.7708 56.2412 20.3438C55.7621 19.9167 55.0954 19.7031 54.2412 19.7031C53.3975 19.7031 52.5694 19.8229 51.7569 20.0625C50.9444 20.3021 50.1319 20.6042 49.3194 20.9688L47.7412 17.75C48.6683 17.2604 49.7048 16.875 50.8506 16.5938C52.0069 16.3125 53.1996 16.1719 54.4287 16.1719ZM56.96 25.9062L55.1162 25.9688C53.5746 26.0104 52.5017 26.2865 51.8975 26.7969C51.3037 27.3073 51.0069 27.9792 51.0069 28.8125C51.0069 29.5417 51.2204 30.0625 51.6475 30.375C52.0746 30.6771 52.6319 30.8281 53.3194 30.8281C54.3402 30.8281 55.1996 30.526 55.8975 29.9219C56.6058 29.3177 56.96 28.4583 56.96 27.3438V25.9062ZM76.5637 28.8125C76.5637 30 76.2825 31.0052 75.72 31.8281C75.1679 32.6406 74.3398 33.2604 73.2356 33.6875C72.1315 34.1042 70.7565 34.3125 69.1106 34.3125C67.8919 34.3125 66.845 34.2344 65.97 34.0781C65.1054 33.9219 64.2304 33.6615 63.345 33.2969V29.3594C64.2929 29.7865 65.3085 30.1406 66.3919 30.4219C67.4856 30.6927 68.444 30.8281 69.2669 30.8281C70.194 30.8281 70.8554 30.6927 71.2512 30.4219C71.6575 30.1406 71.8606 29.776 71.8606 29.3281C71.8606 29.0365 71.7773 28.776 71.6106 28.5469C71.4544 28.3073 71.1106 28.0417 70.5794 27.75C70.0481 27.4479 69.2148 27.0573 68.0794 26.5781C66.9856 26.1198 66.0846 25.6562 65.3762 25.1875C64.6783 24.7188 64.1575 24.1667 63.8137 23.5312C63.4804 22.8854 63.3137 22.0677 63.3137 21.0781C63.3137 19.4635 63.9387 18.25 65.1887 17.4375C66.4492 16.6146 68.1315 16.2031 70.2356 16.2031C71.319 16.2031 72.3502 16.3125 73.3294 16.5312C74.319 16.75 75.3346 17.099 76.3762 17.5781L74.9387 21.0156C74.0742 20.6406 73.2565 20.3333 72.4856 20.0938C71.7252 19.8542 70.9492 19.7344 70.1575 19.7344C69.4596 19.7344 68.9335 19.8281 68.5794 20.0156C68.2252 20.2031 68.0481 20.4896 68.0481 20.875C68.0481 21.1562 68.1367 21.4062 68.3137 21.625C68.5012 21.8438 68.8554 22.0885 69.3762 22.3594C69.9075 22.6198 70.6835 22.9583 71.7044 23.375C72.694 23.7812 73.5533 24.2083 74.2825 24.6562C75.0117 25.0938 75.5742 25.6406 75.97 26.2969C76.3658 26.9427 76.5637 27.7812 76.5637 28.8125ZM85.4019 30.5156C85.9227 30.5156 86.4279 30.4635 86.9175 30.3594C87.4175 30.2552 87.9123 30.125 88.4019 29.9688V33.5156C87.8915 33.7448 87.256 33.9323 86.4956 34.0781C85.7456 34.2344 84.9227 34.3125 84.0269 34.3125C82.9852 34.3125 82.0477 34.1458 81.2144 33.8125C80.3915 33.4688 79.7404 32.8802 79.2612 32.0469C78.7925 31.2031 78.5581 30.0312 78.5581 28.5312V20.1094H76.2769V18.0938L78.9019 16.5L80.2769 12.8125H83.3237V16.5312H88.2144V20.1094H83.3237V28.5312C83.3237 29.1979 83.5112 29.6979 83.8862 30.0312C84.2717 30.3542 84.7769 30.5156 85.4019 30.5156ZM87.2087 16.5312H92.4275L95.7244 26.3594C95.8285 26.6719 95.9171 26.9896 95.99 27.3125C96.0629 27.6354 96.1254 27.9688 96.1775 28.3125C96.2296 28.6562 96.2712 29.0156 96.3025 29.3906H96.3962C96.4587 28.8281 96.5421 28.3021 96.6462 27.8125C96.7608 27.3229 96.9015 26.8385 97.0681 26.3594L100.302 16.5312H105.412L98.0212 36.2344C97.5733 37.4427 96.99 38.4479 96.2712 39.25C95.5525 40.0625 94.7244 40.6719 93.7869 41.0781C92.8598 41.4844 91.839 41.6875 90.7244 41.6875C90.1827 41.6875 89.714 41.6562 89.3181 41.5938C88.9223 41.5417 88.5837 41.4844 88.3025 41.4219V37.6406C88.5212 37.6927 88.7973 37.7396 89.1306 37.7812C89.464 37.8229 89.8129 37.8438 90.1775 37.8438C90.8442 37.8438 91.4171 37.7031 91.8962 37.4219C92.3754 37.1406 92.7765 36.7604 93.0994 36.2812C93.4223 35.8125 93.6775 35.2969 93.865 34.7344L94.1462 33.875L87.2087 16.5312ZM125.291 34H112.135V11.1562H125.291V15.125H116.979V20.1406H124.713V24.1094H116.979V30H125.291V34ZM134.614 16.1719C136.957 16.1719 138.754 16.6823 140.004 17.7031C141.254 18.724 141.879 20.276 141.879 22.3594V34H138.551L137.629 31.625H137.504C137.004 32.25 136.494 32.7604 135.973 33.1562C135.452 33.5521 134.853 33.8438 134.176 34.0312C133.499 34.2188 132.676 34.3125 131.707 34.3125C130.676 34.3125 129.749 34.1146 128.926 33.7188C128.114 33.3229 127.473 32.7188 127.004 31.9062C126.536 31.0833 126.301 30.0417 126.301 28.7812C126.301 26.9271 126.952 25.5625 128.254 24.6875C129.556 23.8021 131.51 23.3125 134.114 23.2188L137.145 23.125V22.3594C137.145 21.4427 136.905 20.7708 136.426 20.3438C135.947 19.9167 135.28 19.7031 134.426 19.7031C133.582 19.7031 132.754 19.8229 131.942 20.0625C131.129 20.3021 130.317 20.6042 129.504 20.9688L127.926 17.75C128.853 17.2604 129.89 16.875 131.036 16.5938C132.192 16.3125 133.385 16.1719 134.614 16.1719ZM137.145 25.9062L135.301 25.9688C133.76 26.0104 132.687 26.2865 132.082 26.7969C131.489 27.3073 131.192 27.9792 131.192 28.8125C131.192 29.5417 131.405 30.0625 131.832 30.375C132.26 30.6771 132.817 30.8281 133.504 30.8281C134.525 30.8281 135.385 30.526 136.082 29.9219C136.791 29.3177 137.145 28.4583 137.145 27.3438V25.9062ZM151.921 30.5156C152.441 30.5156 152.947 30.4635 153.436 30.3594C153.936 30.2552 154.431 30.125 154.921 29.9688V33.5156C154.41 33.7448 153.775 33.9323 153.014 34.0781C152.264 34.2344 151.441 34.3125 150.546 34.3125C149.504 34.3125 148.566 34.1458 147.733 33.8125C146.91 33.4688 146.259 32.8802 145.78 32.0469C145.311 31.2031 145.077 30.0312 145.077 28.5312V20.1094H142.796V18.0938L145.421 16.5L146.796 12.8125H149.842V16.5312H154.733V20.1094H149.842V28.5312C149.842 29.1979 150.03 29.6979 150.405 30.0312C150.79 30.3542 151.296 30.5156 151.921 30.5156ZM168.415 28.8125C168.415 30 168.134 31.0052 167.571 31.8281C167.019 32.6406 166.191 33.2604 165.087 33.6875C163.983 34.1042 162.608 34.3125 160.962 34.3125C159.743 34.3125 158.696 34.2344 157.821 34.0781C156.957 33.9219 156.082 33.6615 155.196 33.2969V29.3594C156.144 29.7865 157.16 30.1406 158.243 30.4219C159.337 30.6927 160.295 30.8281 161.118 30.8281C162.045 30.8281 162.707 30.6927 163.102 30.4219C163.509 30.1406 163.712 29.776 163.712 29.3281C163.712 29.0365 163.629 28.776 163.462 28.5469C163.306 28.3073 162.962 28.0417 162.431 27.75C161.899 27.4479 161.066 27.0573 159.931 26.5781C158.837 26.1198 157.936 25.6562 157.227 25.1875C156.53 24.7188 156.009 24.1667 155.665 23.5312C155.332 22.8854 155.165 22.0677 155.165 21.0781C155.165 19.4635 155.79 18.25 157.04 17.4375C158.3 16.6146 159.983 16.2031 162.087 16.2031C163.17 16.2031 164.201 16.3125 165.181 16.5312C166.17 16.75 167.186 17.099 168.227 17.5781L166.79 21.0156C165.925 20.6406 165.108 20.3333 164.337 20.0938C163.576 19.8542 162.8 19.7344 162.009 19.7344C161.311 19.7344 160.785 19.8281 160.431 20.0156C160.076 20.2031 159.899 20.4896 159.899 20.875C159.899 21.1562 159.988 21.4062 160.165 21.625C160.352 21.8438 160.707 22.0885 161.227 22.3594C161.759 22.6198 162.535 22.9583 163.556 23.375C164.545 23.7812 165.405 24.2083 166.134 24.6562C166.863 25.0938 167.425 25.6406 167.821 26.2969C168.217 26.9427 168.415 27.7812 168.415 28.8125ZM169.222 31.7656C169.222 30.7865 169.488 30.099 170.019 29.7031C170.56 29.3073 171.211 29.1094 171.972 29.1094C172.711 29.1094 173.347 29.3073 173.878 29.7031C174.42 30.099 174.691 30.7865 174.691 31.7656C174.691 32.7031 174.42 33.3802 173.878 33.7969C173.347 34.2135 172.711 34.4219 171.972 34.4219C171.211 34.4219 170.56 34.2135 170.019 33.7969C169.488 33.3802 169.222 32.7031 169.222 31.7656Z" fill="#1BAC4B"/>
</svg>
