<svg width="25" height="24" viewBox="0 0 25 24" fill="none" xmlns="http://www.w3.org/2000/svg">
<path fill-rule="evenodd" clip-rule="evenodd" d="M22.6387 15.8957H18.5907C16.6937 15.8957 15.1497 14.3527 15.1487 12.4567C15.1487 10.5587 16.6927 9.01467 18.5907 9.01367H22.6387C23.0527 9.01367 23.3887 9.34967 23.3887 9.76367C23.3887 10.1777 23.0527 10.5137 22.6387 10.5137H18.5907C17.5197 10.5147 16.6487 11.3857 16.6487 12.4557C16.6487 13.5247 17.5207 14.3957 18.5907 14.3957H22.6387C23.0527 14.3957 23.3887 14.7317 23.3887 15.1457C23.3887 15.5597 23.0527 15.8957 22.6387 15.8957Z" fill="" stroke="" />
<path fill-rule="evenodd" clip-rule="evenodd" d="M19.0483 13.1436H18.7363C18.3223 13.1436 17.9863 12.8076 17.9863 12.3936C17.9863 11.9796 18.3223 11.6436 18.7363 11.6436H19.0483C19.4623 11.6436 19.7983 11.9796 19.7983 12.3936C19.7983 12.8076 19.4623 13.1436 19.0483 13.1436Z" fill="" stroke="" />
<mask id="mask0_11_21877" style="mask-type:luminance" maskUnits="userSpaceOnUse" x="2" y="3" width="22" height="20">
<path fill-rule="evenodd" clip-rule="evenodd" d="M2.75 3H23.3886V22.1729H2.75V3Z" fill="" stroke="" />
</mask>
<g mask="url(#mask0_11_21877)">
<path fill-rule="evenodd" clip-rule="evenodd" d="M8.74751 4.5C6.26751 4.5 4.24951 6.518 4.24951 8.998V16.175C4.24951 18.655 6.26751 20.673 8.74751 20.673H17.3915C19.8715 20.673 21.8885 18.655 21.8885 16.175V8.998C21.8885 6.518 19.8715 4.5 17.3915 4.5H8.74751ZM17.3915 22.173H8.74751C5.44051 22.173 2.74951 19.482 2.74951 16.175V8.998C2.74951 5.69 5.44051 3 8.74751 3H17.3915C20.6985 3 23.3885 5.69 23.3885 8.998V16.175C23.3885 19.482 20.6985 22.173 17.3915 22.173Z" fill="" stroke="" />
</g>
<path fill-rule="evenodd" clip-rule="evenodd" d="M13.4346 9.03809H8.03564C7.62164 9.03809 7.28564 8.70209 7.28564 8.28809C7.28564 7.87409 7.62164 7.53809 8.03564 7.53809H13.4346C13.8486 7.53809 14.1846 7.87409 14.1846 8.28809C14.1846 8.70209 13.8486 9.03809 13.4346 9.03809Z" fill="" stroke="" />
</svg>
