<svg width="40" height="40" viewBox="0 0 40 40" fill="none" xmlns="http://www.w3.org/2000/svg">
<circle cx="20.482" cy="20.2408" r="15.1807" fill="#1BAC4B"/>
<ellipse cx="38.3132" cy="6.74681" rx="1.68675" ry="1.68675" fill="url(#paint0_linear_71_3506)"/>
<circle cx="4.09641" cy="2.89133" r="2.16867" fill="url(#paint1_linear_71_3506)"/>
<circle cx="1.92772" cy="29.1562" r="0.963855" fill="url(#paint2_linear_71_3506)"/>
<circle cx="35.1807" cy="34.9394" r="0.481928" fill="url(#paint3_linear_71_3506)"/>
<path fill-rule="evenodd" clip-rule="evenodd" d="M17.9807 14.7793H22.5073C24.2771 14.7793 25.4623 16.0219 25.4623 17.8701V22.136C25.4623 23.9785 24.2771 25.2211 22.5073 25.2211H17.9807C16.2109 25.2211 15.0205 23.9785 15.0205 22.136V17.8701C15.0205 16.0219 16.2109 14.7793 17.9807 14.7793ZM19.9439 21.562L22.4238 19.0821C22.6014 18.9046 22.6014 18.6175 22.4238 18.4347C22.2463 18.2572 21.954 18.2572 21.7765 18.4347L19.6202 20.591L18.7066 19.6773C18.5291 19.4998 18.2367 19.4998 18.0592 19.6773C17.8817 19.8548 17.8817 20.142 18.0592 20.3247L19.3018 21.562C19.3905 21.6508 19.5054 21.6926 19.6202 21.6926C19.7403 21.6926 19.8552 21.6508 19.9439 21.562Z" fill="white"/>
<circle cx="22.6504" cy="1.68652" r="0.481928" fill="url(#paint4_linear_71_3506)"/>
<circle cx="13.2532" cy="38.5539" r="0.722892" fill="url(#paint5_linear_71_3506)"/>
<circle cx="26.2649" cy="37.5901" r="0.240964" fill="url(#paint6_linear_71_3506)"/>
<circle cx="36.6265" cy="24.3369" r="0.481928" fill="url(#paint7_linear_71_3506)"/>
<circle cx="0.240964" cy="16.8674" r="0.240964" fill="url(#paint8_linear_71_3506)"/>
<defs>
<linearGradient id="paint0_linear_71_3506" x1="40" y1="8.43355" x2="35.9858" y2="7.26969" gradientUnits="userSpaceOnUse">
<stop stop-color="#1BAC4B"/>
<stop offset="1" stop-color="#46D375"/>
</linearGradient>
<linearGradient id="paint1_linear_71_3506" x1="6.26508" y1="5.06001" x2="1.10403" y2="3.5636" gradientUnits="userSpaceOnUse">
<stop stop-color="#1BAC4B"/>
<stop offset="1" stop-color="#46D375"/>
</linearGradient>
<linearGradient id="paint2_linear_71_3506" x1="2.89158" y1="30.1201" x2="0.597775" y2="29.455" gradientUnits="userSpaceOnUse">
<stop stop-color="#1BAC4B"/>
<stop offset="1" stop-color="#46D375"/>
</linearGradient>
<linearGradient id="paint3_linear_71_3506" x1="35.6626" y1="35.4214" x2="34.5157" y2="35.0888" gradientUnits="userSpaceOnUse">
<stop stop-color="#1BAC4B"/>
<stop offset="1" stop-color="#46D375"/>
</linearGradient>
<linearGradient id="paint4_linear_71_3506" x1="23.1323" y1="2.16845" x2="21.9854" y2="1.83591" gradientUnits="userSpaceOnUse">
<stop stop-color="#1BAC4B"/>
<stop offset="1" stop-color="#46D375"/>
</linearGradient>
<linearGradient id="paint5_linear_71_3506" x1="13.9761" y1="39.2768" x2="12.2557" y2="38.778" gradientUnits="userSpaceOnUse">
<stop stop-color="#1BAC4B"/>
<stop offset="1" stop-color="#46D375"/>
</linearGradient>
<linearGradient id="paint6_linear_71_3506" x1="26.5059" y1="37.831" x2="25.9324" y2="37.6648" gradientUnits="userSpaceOnUse">
<stop stop-color="#1BAC4B"/>
<stop offset="1" stop-color="#46D375"/>
</linearGradient>
<linearGradient id="paint7_linear_71_3506" x1="37.1084" y1="24.8188" x2="35.9615" y2="24.4863" gradientUnits="userSpaceOnUse">
<stop stop-color="#1BAC4B"/>
<stop offset="1" stop-color="#46D375"/>
</linearGradient>
<linearGradient id="paint8_linear_71_3506" x1="0.481928" y1="17.1084" x2="-0.091523" y2="16.9421" gradientUnits="userSpaceOnUse">
<stop stop-color="#1BAC4B"/>
<stop offset="1" stop-color="#46D375"/>
</linearGradient>
</defs>
</svg>
