<svg width="150" height="150" viewBox="0 0 30 20" fill="none" xmlns="http://www.w3.org/2000/svg">
<path d="M29.0625 16.0938C29.0614 16.9637 28.7154 17.7977 28.1003 18.4128C27.4852 19.0279 26.6512 19.3739 25.7812 19.375H4.21875C3.34883 19.3739 2.51484 19.0279 1.89972 18.4128C1.28459 17.7977 0.938552 16.9637 0.9375 16.0938C0.937465 16.0322 0.949566 15.9712 0.97311 15.9143C0.996654 15.8574 1.03118 15.8057 1.07472 15.7622C1.11825 15.7187 1.16994 15.6842 1.22683 15.6606C1.28371 15.6371 1.34468 15.625 1.40625 15.625H28.5938C28.6553 15.625 28.7163 15.6371 28.7732 15.6606C28.8301 15.6842 28.8818 15.7187 28.9253 15.7622C28.9688 15.8057 29.0033 15.8574 29.0269 15.9143C29.0504 15.9712 29.0625 16.0322 29.0625 16.0938ZM15 4.375C8.53594 4.375 3.1875 8.88437 2.4375 14.6875H27.5625C26.8125 8.88437 21.4641 4.375 15 4.375ZM15 3.4375C15.7551 3.43707 16.509 3.49664 17.2547 3.61562C17.3131 3.40494 17.3431 3.18738 17.3438 2.96875C17.3438 2.34715 17.0968 1.75101 16.6573 1.31147C16.2177 0.87193 15.6216 0.625 15 0.625C14.3784 0.625 13.7823 0.87193 13.3427 1.31147C12.9032 1.75101 12.6562 2.34715 12.6562 2.96875C12.6569 3.18738 12.6869 3.40494 12.7453 3.61562C13.491 3.49664 14.2449 3.43707 15 3.4375Z" fill="#FF8A00"/>
</svg>
