<svg width="28" height="28" viewBox="0 0 28 28" fill="none" xmlns="http://www.w3.org/2000/svg">
<mask id="mask0_11_21697" style="mask-type:luminance" maskUnits="userSpaceOnUse" x="2" y="2" width="24" height="24">
<path fill-rule="evenodd" clip-rule="evenodd" d="M2.3335 2.3335H25.67V25.668H2.3335V2.3335Z" fill="white"/>
</mask>
<g mask="url(#mask0_11_21697)">
<path fill-rule="evenodd" clip-rule="evenodd" d="M12.769 23.4214C13.4573 24.0934 14.5657 24.0853 15.2493 23.3981L16.0917 22.5581C16.745 21.9059 17.648 21.5338 18.5685 21.5338H19.7702C20.7432 21.5338 21.5342 20.7428 21.5342 19.7709V18.5704C21.5342 17.6359 21.8958 16.7574 22.5562 16.0959L23.3962 15.2548C23.738 14.9118 23.9212 14.4673 23.92 13.9959C23.9188 13.5258 23.7333 13.0836 23.3985 12.7499L22.5573 11.9076C21.8958 11.2414 21.5342 10.3641 21.5342 9.42961V8.23145C21.5342 7.25845 20.7432 6.46745 19.7702 6.46745H18.5708C17.6363 6.46745 16.7578 6.10461 16.0963 5.44778L15.254 4.60428C14.5528 3.91011 13.434 3.91361 12.7492 4.60311L11.9103 5.44428C11.2407 6.10578 10.3622 6.46745 9.43117 6.46745H8.23067C7.25884 6.46861 6.46784 7.25961 6.46784 8.23145V9.42728C6.46784 10.3618 6.10501 11.2403 5.44701 11.9029L4.61867 12.7324C4.61051 12.7418 4.60234 12.7488 4.59417 12.7569C3.90934 13.4464 3.91284 14.5653 4.60234 15.2501L5.44467 16.0924C6.10501 16.7551 6.46784 17.6336 6.46784 18.5681V19.7709C6.46784 20.7428 7.25767 21.5338 8.23067 21.5338H9.42884C10.3645 21.5349 11.243 21.8978 11.9045 22.5569L12.7457 23.3958C12.7527 23.4039 12.7608 23.4121 12.769 23.4214ZM13.9987 25.6684C13.1038 25.6684 12.209 25.3301 11.5242 24.6511C11.5148 24.6418 11.5055 24.6324 11.4962 24.6219L10.6678 23.7948C10.3377 23.4669 9.89667 23.2849 9.42767 23.2838H8.23067C6.29284 23.2838 4.71784 21.7076 4.71784 19.7709V18.5681C4.71784 18.0991 4.53467 17.6593 4.20567 17.3279L3.36684 16.4903C2.00417 15.1346 1.98784 12.9273 3.32601 11.5506C3.33651 11.5401 3.34701 11.5296 3.35751 11.5191L4.20684 10.6674C4.53467 10.3373 4.71784 9.89511 4.71784 9.42728V8.23145C4.71784 6.29478 6.29284 4.71861 8.22951 4.71745H9.43117C9.89901 4.71745 10.34 4.53428 10.6748 4.20411L11.509 3.36761C12.8728 1.99445 15.1023 1.98745 16.4778 3.35478L17.3307 4.20761C17.6608 4.53545 18.1018 4.71745 18.5708 4.71745H19.7702C21.708 4.71745 23.2842 6.29361 23.2842 8.23145V9.42961C23.2842 9.89745 23.4662 10.3396 23.7963 10.6721L24.634 11.5109C25.2978 12.1701 25.6665 13.0509 25.67 13.9901C25.6735 14.9293 25.3107 15.8124 24.6492 16.4786L23.794 17.3314C23.4662 17.6616 23.2842 18.1014 23.2842 18.5704V19.7709C23.2842 21.7076 21.708 23.2838 19.7713 23.2838H18.5685C18.1065 23.2838 17.655 23.4704 17.3272 23.7959L16.4895 24.6336C15.8047 25.3231 14.9017 25.6684 13.9987 25.6684Z" fill="#212121"/>
</g>
<path fill-rule="evenodd" clip-rule="evenodd" d="M11.0019 17.875C10.7779 17.875 10.5539 17.7898 10.3836 17.6183C10.0417 17.2765 10.0417 16.7235 10.3836 16.3817L16.3802 10.3838C16.7221 10.042 17.2762 10.042 17.6181 10.3838C17.9599 10.7256 17.9599 11.2798 17.6181 11.6216L11.6202 17.6183C11.4499 17.7898 11.2259 17.875 11.0019 17.875Z" fill="#212121"/>
<path fill-rule="evenodd" clip-rule="evenodd" d="M16.9208 18.0824C16.2756 18.0824 15.7483 17.5609 15.7483 16.9157C15.7483 16.2705 16.2651 15.749 16.9103 15.749H16.9208C17.566 15.749 18.0875 16.2705 18.0875 16.9157C18.0875 17.5609 17.566 18.0824 16.9208 18.0824Z" fill="#212121"/>
<path fill-rule="evenodd" clip-rule="evenodd" d="M11.0873 12.2489C10.4421 12.2489 9.91479 11.7274 9.91479 11.0822C9.91479 10.437 10.4316 9.91553 11.0768 9.91553H11.0873C11.7325 9.91553 12.254 10.437 12.254 11.0822C12.254 11.7274 11.7325 12.2489 11.0873 12.2489Z" fill="#212121"/>
</svg>
