<svg width="25" height="24" viewBox="0 0 25 24" fill="none" xmlns="http://www.w3.org/2000/svg">
<path d="M13.6511 18.6668L13.2644 19.3095L13.6511 18.6668C13.097 18.3335 12.4042 18.3328 11.8495 18.6652L8.08297 20.9217C7.71547 21.1419 7.29509 21.2582 6.86668 21.2582C5.5596 21.2582 4.5 20.1986 4.5 18.8915V6C4.5 4.20507 5.95507 2.75 7.75 2.75H17.75C19.5449 2.75 21 4.20507 21 6V18.8774C21 20.1922 19.9341 21.2582 18.6192 21.2582C18.1867 21.2582 17.7624 21.1404 17.3918 20.9174L13.6511 18.6668Z" stroke="" stroke-width="1.5" fill="transparent"/>
<path d="M9.75 7H15.75" stroke="" fill="transparent"  stroke-width="1.5" stroke-linecap="round"/>
</svg>
