<svg width="16" height="16" viewBox="0 0 16 16" fill="none" xmlns="http://www.w3.org/2000/svg">
<path fill-rule="evenodd" clip-rule="evenodd" d="M5.0307 2.18529C5.14149 2.26526 5.32016 2.44896 5.32016 2.44896C6.01378 3.09905 7.05849 4.71596 7.39398 5.53629C7.401 5.53629 7.59996 6.02406 7.60776 6.25606V6.28694C7.60776 6.64247 7.40881 6.97504 7.08892 7.14528C6.95704 7.21547 6.63629 7.28074 6.48154 7.31223C6.43029 7.32266 6.39724 7.32939 6.3953 7.33136C5.9381 7.40104 5.23668 7.44696 4.46661 7.44696C3.6583 7.44696 2.92646 7.40104 2.47627 7.31552C2.46847 7.31552 2.05729 7.2308 1.91998 7.17616C1.7218 7.09143 1.55405 6.93624 1.44716 6.74303C1.3707 6.58863 1.33325 6.42551 1.33325 6.25606C1.34027 6.0779 1.45497 5.74533 1.50802 5.61389C1.84351 4.74684 2.94128 3.09113 3.61227 2.45688C3.68197 2.38615 3.76129 2.31204 3.81648 2.26048C3.84593 2.23296 3.86852 2.21187 3.8791 2.20112C4.04685 2.06968 4.25283 2 4.47441 2C4.6718 2 4.86998 2.06176 5.0307 2.18529ZM12.1523 6.77452C12.1523 7.12372 11.8738 7.40641 11.5297 7.40641C11.1856 7.40641 10.9071 7.12372 10.9071 6.77452L10.7355 3.72197C10.7355 3.27695 11.0912 2.91667 11.5297 2.91667C11.9682 2.91667 12.3232 3.27695 12.3232 3.72197L12.1523 6.77452ZM14.0799 8.82373C14.278 8.90925 14.4458 9.06366 14.5527 9.25687C14.6291 9.41127 14.6666 9.57439 14.6666 9.74464C14.6596 9.92201 14.5449 10.2554 14.491 10.3868C14.1563 11.2531 13.0578 12.9088 12.3876 13.5439C12.319 13.613 12.2412 13.6856 12.1861 13.737L12.1861 13.737C12.1553 13.7657 12.1316 13.7878 12.1207 13.7989C11.9522 13.9303 11.747 14 11.5262 14C11.3273 14 11.1291 13.9382 10.9691 13.8139C10.8583 13.7347 10.6797 13.551 10.6797 13.551C9.98528 12.9017 8.94135 11.284 8.60585 10.4636C8.59805 10.4636 8.39988 9.97665 8.39208 9.74464V9.71376C8.39208 9.35743 8.59025 9.02486 8.91092 8.85461C9.04253 8.78515 9.36226 8.7197 9.51737 8.68795C9.56915 8.67735 9.60258 8.67051 9.60453 8.66853C10.0617 8.59885 10.7632 8.55292 11.5332 8.55292C12.3415 8.55292 13.0734 8.59885 13.5236 8.68436C13.5306 8.68436 13.9425 8.76909 14.0799 8.82373ZM4.47027 8.59369C4.1262 8.59369 3.84766 8.87637 3.84766 9.22556L3.67601 12.278C3.67601 12.7231 4.03179 13.0833 4.47027 13.0833C4.90875 13.0833 5.26375 12.7231 5.26375 12.278L5.09289 9.22556C5.09289 8.87637 4.81435 8.59369 4.47027 8.59369Z" fill="#1BAC4B"/>
</svg>
