<svg width="17" height="19" viewBox="0 0 17 19" fill="none" xmlns="http://www.w3.org/2000/svg">
<path d="M5.59388 19.006C4.96508 18.972 4.37336 18.6978 3.94088 18.24C3.42347 17.7423 2.96176 17.1897 2.56388 16.592C1.94236 15.702 1.45107 14.7279 1.10488 13.699C0.713084 12.5922 0.506971 11.4281 0.49488 10.254C0.464442 9.10198 0.74974 7.96356 1.31988 6.96202C1.73745 6.24012 2.33307 5.63728 3.04988 5.21102C3.75877 4.78659 4.5677 4.55813 5.39388 4.54902C6.0167 4.58587 6.62873 4.72823 7.20388 4.97002C7.66288 5.17202 8.14488 5.31402 8.63988 5.39202C9.1859 5.27764 9.71943 5.11018 10.2329 4.89202C10.8405 4.65476 11.4839 4.52188 12.1359 4.49902C12.2229 4.49902 12.3089 4.49902 12.3919 4.50902C13.8219 4.55002 15.1519 5.25202 15.9919 6.40902C15.3363 6.75965 14.7908 7.28521 14.416 7.92728C14.0412 8.56935 13.8518 9.30277 13.8689 10.046C13.8623 10.6144 13.9763 11.1776 14.2033 11.6987C14.4304 12.2198 14.7652 12.6868 15.1859 13.069C15.5688 13.4338 16.0147 13.7262 16.5019 13.932C16.4019 14.232 16.2869 14.522 16.1649 14.814C15.8879 15.4593 15.5461 16.0748 15.1449 16.651C14.7655 17.2283 14.3238 17.7622 13.8279 18.243C13.3755 18.6919 12.7725 18.9567 12.1359 18.986C11.5962 18.9621 11.0661 18.8355 10.5739 18.613C10.0431 18.3818 9.47266 18.2551 8.89388 18.24C8.29877 18.2518 7.71146 18.3777 7.16388 18.611C6.69093 18.8244 6.18563 18.9572 5.66888 19.004L5.59388 19.006ZM8.74388 4.49902C8.66888 4.49902 8.59388 4.49902 8.51888 4.49002C8.5031 4.37099 8.49476 4.25109 8.49388 4.13102C8.52659 3.13216 8.91695 2.17826 9.59388 1.44302C9.9725 1.02048 10.4314 0.677486 10.9439 0.434023C11.4214 0.188178 11.9433 0.04028 12.4789 -0.000976562C12.4939 0.130023 12.4939 0.258024 12.4939 0.380024C12.4798 1.36319 12.1104 2.30805 11.4539 3.04002C11.136 3.46624 10.7287 3.81772 10.2605 4.06977C9.79236 4.32182 9.2747 4.46833 8.74388 4.49902Z" fill="#0F172A"/>
</svg>
