<svg width="180" height="52" viewBox="0 0 180 52" fill="none" xmlns="http://www.w3.org/2000/svg">
<rect width="144" height="41.6" rx="8" transform="matrix(1.25 0 0 -1.25 0 52)" fill="black"/>
<path d="M66.5046 14.8497C66.5046 15.8011 66.2128 16.563 65.6381 17.1313C64.9773 17.805 64.1166 18.1439 63.0619 18.1439C62.0539 18.1439 61.1933 17.7993 60.4873 17.1199C59.7798 16.4306 59.4268 15.5846 59.4268 14.572C59.4268 13.5593 59.7798 12.7133 60.4873 12.0297C61.1933 11.3447 62.0539 11 63.0619 11C63.5637 11 64.0422 11.1011 64.4988 11.2891C64.9539 11.4785 65.3244 11.7349 65.5928 12.0511L64.9831 12.6521C64.5148 12.1123 63.8774 11.846 63.0619 11.846C62.3267 11.846 61.6893 12.0967 61.1481 12.6023C60.6127 13.1093 60.3443 13.7659 60.3443 14.572C60.3443 15.3781 60.6127 16.0403 61.1481 16.5474C61.6893 17.0473 62.3267 17.3036 63.0619 17.3036C63.8424 17.3036 64.4988 17.0473 65.0166 16.5417C65.358 16.207 65.552 15.7455 65.6031 15.1559H63.0619V14.3327H66.452C66.4929 14.5107 66.5046 14.6831 66.5046 14.8497Z" fill="white"/>
<path d="M71.8829 11.9955H68.6985V14.1604H71.5693V14.9836H68.6985V17.1484H71.8829V17.9873H67.797V11.1567H71.8829V11.9955Z" fill="white"/>
<path d="M75.6785 17.9873H74.777V11.9955H72.8238V11.1567H77.6332V11.9955H75.6785V17.9873Z" fill="white"/>
<path d="M81.1138 17.9873V11.1567H82.0138V17.9873H81.1138Z" fill="white"/>
<path d="M86.0035 17.9873H85.1093V11.9955H83.1487V11.1567H87.964V11.9955H86.0035V17.9873Z" fill="white"/>
<path d="M97.0695 17.1085C96.3795 17.7993 95.5247 18.1439 94.505 18.1439C93.4795 18.1439 92.6247 17.7993 91.9347 17.1085C91.2462 16.4192 90.9034 15.5732 90.9034 14.572C90.9034 13.5707 91.2462 12.7247 91.9347 12.0354C92.6247 11.3447 93.4795 11 94.505 11C95.5189 11 96.3737 11.3447 97.0637 12.0411C97.758 12.7361 98.1008 13.5764 98.1008 14.572C98.1008 15.5732 97.758 16.4192 97.0695 17.1085ZM92.6014 16.536C93.1207 17.0473 93.7523 17.3036 94.505 17.3036C95.2519 17.3036 95.8894 17.0473 96.4029 16.536C96.9207 16.0247 97.1833 15.3681 97.1833 14.572C97.1833 13.7758 96.9207 13.1193 96.4029 12.608C95.8894 12.0967 95.2519 11.8403 94.505 11.8403C93.7523 11.8403 93.1207 12.0967 92.6014 12.608C92.0835 13.1193 91.821 13.7758 91.821 14.572C91.821 15.3681 92.0835 16.0247 92.6014 16.536Z" fill="white"/>
<path d="M99.3655 17.9873V11.1567H100.46L103.861 16.469H103.901L103.861 15.1559V11.1567H104.761V17.9873H103.822L100.26 12.4128H100.22L100.26 13.7317V17.9873H99.3655Z" fill="white"/>
<path d="M90.6821 27.9625C87.9411 27.9625 85.702 29.9991 85.702 32.8091C85.702 35.5963 87.9411 37.6544 90.6821 37.6544C93.4289 37.6544 95.6681 35.5963 95.6681 32.8091C95.6681 29.9991 93.4289 27.9625 90.6821 27.9625ZM90.6821 35.7459C89.1781 35.7459 87.8842 34.5339 87.8842 32.8091C87.8842 31.0616 89.1781 29.871 90.6821 29.871C92.1861 29.871 93.4858 31.0616 93.4858 32.8091C93.4858 34.5339 92.1861 35.7459 90.6821 35.7459ZM79.816 27.9625C77.0692 27.9625 74.8358 29.9991 74.8358 32.8091C74.8358 35.5963 77.0692 37.6544 79.816 37.6544C82.5613 37.6544 84.7961 35.5963 84.7961 32.8091C84.7961 29.9991 82.5613 27.9625 79.816 27.9625ZM79.816 35.7459C78.3105 35.7459 77.0123 34.5339 77.0123 32.8091C77.0123 31.0616 78.3105 29.871 79.816 29.871C81.3199 29.871 82.6138 31.0616 82.6138 32.8091C82.6138 34.5339 81.3199 35.7459 79.816 35.7459ZM66.8857 29.448V31.5074H71.9227C71.7754 32.6582 71.3815 33.5042 70.7776 34.0938C70.0424 34.8059 68.8973 35.5963 66.8857 35.5963C63.7859 35.5963 61.3585 33.1538 61.3585 30.1273C61.3585 27.1008 63.7859 24.6583 66.8857 24.6583C68.5618 24.6583 69.7813 25.2978 70.6813 26.1267L72.1678 24.6754C70.9089 23.5018 69.2343 22.6003 66.8857 22.6003C62.6349 22.6003 59.0625 25.9771 59.0625 30.1273C59.0625 34.2775 62.6349 37.6544 66.8857 37.6544C69.1832 37.6544 70.9089 36.9195 72.2655 35.5408C73.6557 34.1835 74.089 32.2751 74.089 30.734C74.089 30.2555 74.0481 29.8154 73.9752 29.448H66.8857ZM119.759 31.0445C119.349 29.9607 118.084 27.9625 115.508 27.9625C112.956 27.9625 110.83 29.9265 110.83 32.8091C110.83 35.5237 112.934 37.6544 115.753 37.6544C118.033 37.6544 119.349 36.2971 119.89 35.5066L118.198 34.4057C117.634 35.2118 116.865 35.7459 115.753 35.7459C114.649 35.7459 113.857 35.2517 113.349 34.2775L119.988 31.5957L119.759 31.0445ZM112.991 32.6582C112.934 30.7896 114.477 29.8325 115.583 29.8325C116.449 29.8325 117.184 30.2555 117.43 30.8608L112.991 32.6582ZM107.595 37.3595H109.777V23.1173H107.595V37.3595ZM104.021 29.0421H103.948C103.458 28.4752 102.523 27.9625 101.338 27.9625C98.8525 27.9625 96.5798 30.0931 96.5798 32.8248C96.5798 35.5408 98.8525 37.6544 101.338 37.6544C102.523 37.6544 103.458 37.1374 103.948 36.5534H104.021V37.2485C104.021 39.1014 103.007 40.0969 101.372 40.0969C100.038 40.0969 99.2113 39.1569 98.87 38.3665L96.9722 39.1398C97.5192 40.4245 98.9677 42.0054 101.372 42.0054C103.93 42.0054 106.089 40.5356 106.089 36.9593V28.2573H104.021V29.0421ZM101.525 35.7459C100.021 35.7459 98.762 34.5168 98.762 32.8248C98.762 31.1172 100.021 29.871 101.525 29.871C103.007 29.871 104.175 31.1172 104.175 32.8248C104.175 34.5168 103.007 35.7459 101.525 35.7459ZM129.976 23.1173H124.757V37.3595H126.933V31.9631H129.976C132.393 31.9631 134.764 30.2555 134.764 27.5395C134.764 24.8249 132.387 23.1173 129.976 23.1173ZM130.033 29.982H126.933V25.0984H130.033C131.658 25.0984 132.586 26.4158 132.586 27.5395C132.586 28.6418 131.658 29.982 130.033 29.982ZM143.487 27.9354C141.914 27.9354 140.279 28.6134 139.607 30.1159L141.538 30.9064C141.954 30.1159 142.718 29.8596 143.526 29.8596C144.655 29.8596 145.801 30.5218 145.818 31.6911V31.8407C145.424 31.6185 144.581 31.2895 143.544 31.2895C141.464 31.2895 139.344 32.4075 139.344 34.494C139.344 36.4025 141.048 37.6316 142.963 37.6316C144.428 37.6316 145.236 36.9864 145.744 36.2358H145.818V37.3368H147.92V31.8734C147.92 29.3483 145.989 27.9354 143.487 27.9354ZM143.224 35.7402C142.513 35.7402 141.521 35.3955 141.521 34.5339C141.521 33.4315 142.758 33.0085 143.828 33.0085C144.787 33.0085 145.236 33.215 145.818 33.4871C145.647 34.8059 144.485 35.7402 143.224 35.7402ZM155.578 28.2473L153.077 34.4214H153.002L150.416 28.2473H148.069L151.955 36.8753L149.738 41.6764H152.012L158 28.2473H155.578ZM135.96 37.3595H138.142V23.1173H135.96V37.3595Z" fill="white"/>
<path d="M22.5412 11.8776C22.1984 12.2279 22 12.7734 22 13.4798V38.6773C22 39.3837 22.1984 39.9292 22.5412 40.2795L22.6258 40.3564L37.0877 26.2424V25.9091L22.6258 11.795L22.5412 11.8776Z" fill="url(#paint0_linear_15_3873)"/>
<path d="M41.9022 30.9492L37.0869 26.2421V25.9089L41.908 21.2018L42.016 21.263L47.7255 24.4348C49.3549 25.3349 49.3549 26.8161 47.7255 27.7219L42.016 30.888L41.9022 30.9492Z" fill="url(#paint1_linear_15_3873)"/>
<path d="M42.0157 30.888L37.0866 26.0756L22.54 40.2794C23.0812 40.8348 23.9638 40.9018 24.9674 40.3463L42.0157 30.888Z" fill="url(#paint2_linear_15_3873)"/>
<path d="M42.0157 21.2632L24.9674 11.8049C23.9638 11.2552 23.0812 11.3221 22.54 11.8776L37.0866 26.0757L42.0157 21.2632Z" fill="url(#paint3_linear_15_3873)"/>
<defs>
<linearGradient id="paint0_linear_15_3873" x1="35.8037" y1="38.9397" x2="16.6876" y2="19.3604" gradientUnits="userSpaceOnUse">
<stop stop-color="#00A0FF"/>
<stop offset="0.0066" stop-color="#00A1FF"/>
<stop offset="0.2601" stop-color="#00BEFF"/>
<stop offset="0.5122" stop-color="#00D2FF"/>
<stop offset="0.7604" stop-color="#00DFFF"/>
<stop offset="1" stop-color="#00E3FF"/>
</linearGradient>
<linearGradient id="paint1_linear_15_3873" x1="49.8473" y1="26.0739" x2="21.6097" y2="26.0739" gradientUnits="userSpaceOnUse">
<stop stop-color="#FFE000"/>
<stop offset="0.4087" stop-color="#FFBD00"/>
<stop offset="0.7754" stop-color="#FFA500"/>
<stop offset="1" stop-color="#FF9C00"/>
</linearGradient>
<linearGradient id="paint2_linear_15_3873" x1="39.3354" y1="23.4594" x2="13.4124" y2="-3.09167" gradientUnits="userSpaceOnUse">
<stop stop-color="#FF3A44"/>
<stop offset="1" stop-color="#C31162"/>
</linearGradient>
<linearGradient id="paint3_linear_15_3873" x1="18.8784" y1="48.6626" x2="30.4541" y2="36.8064" gradientUnits="userSpaceOnUse">
<stop stop-color="#32A071"/>
<stop offset="0.0685" stop-color="#2DA771"/>
<stop offset="0.4762" stop-color="#15CF74"/>
<stop offset="0.8009" stop-color="#06E775"/>
<stop offset="1" stop-color="#00F076"/>
</linearGradient>
</defs>
</svg>
